REM DIRINDEX 1\2,1\3,1\4,1\5
REM DIRNAME cjc005,folder01,folder02,folder03,folder04
TITLE ""
FILE "P1Q_t_0372-0381.mp3" MP3
  TRACK 01 AUDIO
    TITLE "3:cjc005_2018"
    INDEX 01 00:00:00
  TRACK 02 AUDIO
    TITLE "0:"
    INDEX 01 00:01:24
  TRACK 03 AUDIO
    TITLE "4:cjc005_2019"
    INDEX 01 00:01:50
  TRACK 04 AUDIO
    TITLE "0:"
    INDEX 01 00:03:08
  TRACK 05 AUDIO
    TITLE "5:cjc005_2020"
    INDEX 01 00:03:35
  TRACK 06 AUDIO
    TITLE "0:"
    INDEX 01 00:08:56
  TRACK 07 AUDIO
    TITLE "3:cjc005_2021"
    INDEX 01 00:09:38
  TRACK 08 AUDIO
    TITLE "0:"
    INDEX 01 00:10:57
  TRACK 09 AUDIO
    TITLE "4:cjc005_2022"
    INDEX 01 00:11:03
  TRACK 10 AUDIO
    TITLE "0:"
    INDEX 01 00:12:67
  TRACK 11 AUDIO
    TITLE "5:cjc005_2023"
    INDEX 01 00:13:20
  TRACK 12 AUDIO
    TITLE "0:"
    INDEX 01 00:17:31
  TRACK 13 AUDIO
    TITLE "3:cjc005_2024"
    INDEX 01 00:18:07
  TRACK 14 AUDIO
    TITLE "0:"
    INDEX 01 00:19:38
  TRACK 15 AUDIO
    TITLE "4:cjc005_2025"
    INDEX 01 00:19:62
  TRACK 16 AUDIO
    TITLE "0:"
    INDEX 01 00:21:06
  TRACK 17 AUDIO
    TITLE "5:cjc005_2026"
    INDEX 01 00:21:29
  TRACK 18 AUDIO
    TITLE "0:"
    INDEX 01 00:25:05
  TRACK 19 AUDIO
    TITLE "3:cjc005_2027"
    INDEX 01 00:25:54
  TRACK 20 AUDIO
    TITLE "0:"
    INDEX 01 00:27:04
  TRACK 21 AUDIO
    TITLE "4:cjc005_2028"
    INDEX 01 00:27:39
  TRACK 22 AUDIO
    TITLE "0:"
    INDEX 01 00:29:03
  TRACK 23 AUDIO
    TITLE "5:cjc005_2029"
    INDEX 01 00:29:27
  TRACK 24 AUDIO
    TITLE "0:"
    INDEX 01 00:33:60
  TRACK 25 AUDIO
    TITLE "3:cjc005_2030"
    INDEX 01 00:34:36
  TRACK 26 AUDIO
    TITLE "0:"
    INDEX 01 00:35:57
  TRACK 27 AUDIO
    TITLE "4:cjc005_2031"
    INDEX 01 00:36:07
  TRACK 28 AUDIO
    TITLE "0:"
    INDEX 01 00:37:32
  TRACK 29 AUDIO
    TITLE "5:cjc005_2032"
    INDEX 01 00:37:57
  TRACK 30 AUDIO
    TITLE "0:"
    INDEX 01 00:41:18
  TRACK 31 AUDIO
    TITLE "3:cjc005_2033"
    INDEX 01 00:41:71
  TRACK 32 AUDIO
    TITLE "0:"
    INDEX 01 00:43:11
  TRACK 33 AUDIO
    TITLE "4:cjc005_2034"
    INDEX 01 00:43:37
  TRACK 34 AUDIO
    TITLE "0:"
    INDEX 01 00:45:00
  TRACK 35 AUDIO
    TITLE "5:cjc005_2035"
    INDEX 01 00:45:30
  TRACK 36 AUDIO
    TITLE "0:"
    INDEX 01 00:49:12
  TRACK 37 AUDIO
    TITLE "3:cjc005_2036"
    INDEX 01 00:49:65
  TRACK 38 AUDIO
    TITLE "0:"
    INDEX 01 00:51:16
  TRACK 39 AUDIO
    TITLE "4:cjc005_2037"
    INDEX 01 00:51:38
  TRACK 40 AUDIO
    TITLE "0:"
    INDEX 01 00:52:63
  TRACK 41 AUDIO
    TITLE "5:cjc005_2038"
    INDEX 01 00:53:13
  TRACK 42 AUDIO
    TITLE "0:"
    INDEX 01 00:57:52
  TRACK 43 AUDIO
    TITLE "3:cjc005_2039"
    INDEX 01 00:58:26
  TRACK 44 AUDIO
    TITLE "0:"
    INDEX 01 00:59:63
  TRACK 45 AUDIO
    TITLE "4:cjc005_2040"
    INDEX 01 01:00:13
  TRACK 46 AUDIO
    TITLE "0:"
    INDEX 01 01:01:44
  TRACK 47 AUDIO
    TITLE "5:cjc005_2041"
    INDEX 01 01:01:70
  TRACK 48 AUDIO
    TITLE "0:"
    INDEX 01 01:06:06
  TRACK 49 AUDIO
    TITLE "3:cjc005_2042"
    INDEX 01 01:06:55
  TRACK 50 AUDIO
    TITLE "0:"
    INDEX 01 01:08:01
  TRACK 51 AUDIO
    TITLE "4:cjc005_2043"
    INDEX 01 01:08:27
  TRACK 52 AUDIO
    TITLE "0:"
    INDEX 01 01:09:67
  TRACK 53 AUDIO
    TITLE "5:cjc005_2044"
    INDEX 01 01:10:16
  TRACK 54 AUDIO
    TITLE "0:"
    INDEX 01 01:14:31
  TRACK 55 AUDIO
    TITLE "3:cjc005_2045"
    INDEX 01 01:15:13
  TRACK 56 AUDIO
    TITLE "0:"
    INDEX 01 01:16:30
  TRACK 57 AUDIO
    TITLE "4:cjc005_2046"
    INDEX 01 01:16:56
  TRACK 58 AUDIO
    TITLE "0:"
    INDEX 01 01:18:02
  TRACK 59 AUDIO
    TITLE "5:cjc005_2047"
    INDEX 01 01:18:29
  TRACK 60 AUDIO
    TITLE "0:"
    INDEX 01 01:21:57
